{"title":"The Guilt Trip (2012) BRRip XviD-MeRCuRY","uid":8386845,"size":732683109,"categoryP":"video","categoryS":"movies","magnet":"?xt=urn:btih:3c498dc8a79247be9b350f7059d5f9bd86a3ff15&amp;dn=The+Guilt+Trip+%282012%29+BRRip+XviD-MeRCuRY&amp;tr=udp%3A%2F%2Ftracker.openbittorrent.com%3A80&amp;tr=udp%3A%2F%2Fopen.demonii.com%3A1337&amp;tr=udp%3A%2F%2Ftracker.coppersurfer.tk%3A6969&amp;tr=udp%3A%2F%2Fexodus.desync.com%3A6969","seeders":1,"leechers":0,"uploader":"Gh0stNet","files":6,"time":1366307271,"description":"General\nComplete name: C:\\Users\\Administrator\\Desktop\\Beyaz\\HDL\\BRRRip\\The Guilt Trip (2012) BRRip XviD-MeRCuRY\\The Guilt Trip (2012) BRRip XviD-MeRCuRY.avi\nFormat: AVI\nFormat/Info: Audio Video Interleave\nFile size: 698 MiB\nDuration: 1h 35mn\nOverall bit rate: 1 021 Kbps\n\nVideo\nID: 0\nFormat: MPEG-4 Visual\nFormat profile: Advanced Simple@L5\nFormat settings, BVOP: 2\nFormat settings, QPel: No\nFormat settings, GMC: No warppoints\nFormat settings, Matrix: Default (H.263)\nCodec ID: XVID\nCodec ID/Hint: XviD\nDuration: 1h 35mn\nBit rate: 887 Kbps\nWidth: 640 pixels\nHeight: 272 pixels\nDisplay aspect ratio: 2.35:1\nFrame rate: 23.976 fps\nColor space: YUV\nChroma subsampling: 4:2:0\nBit depth: 8 bits\nScan type: Progressive\nCompression mode: Lossy\nBits/(Pixel*Frame): 0.213\nStream size: 607 MiB (87%)\nWriting library: XviD 1.2.1 (UTC 2008-12-04)\n\nAudio\nID: 1\nFormat: MPEG Audio\nFormat version: Version 1\nFormat profile: Layer 3\nMode: Joint stereo\nMode extension: MS Stereo\nCodec ID: 55\nCodec ID/Hint: MP3\nDuration: 1h 35mn\nBit rate mode: Constant\nBit rate: 128 Kbps\nChannel(s): 2 channels\nSampling rate: 48.0 KHz\nCompression mode: Lossy\nStream size: 87.5 MiB (13%)\nAlignment: Aligned on interleaves\nInterleave, duration: 167 ms (4.00 video frames)\nInterleave, preload duration: 216 ms\nTitle: the.guilt.trip.720p.bluray.x264-sparks\nWriting library: LAME3.99r\nEncoding settings: -m j -V 4 -q 2 -lowpass 17 -b 128","torrent":{"xt":"urn:btih:3c498dc8a79247be9b350f7059d5f9bd86a3ff15","amp;dn":"The+Guilt+Trip+%282012%29+BRRip+XviD-MeRCuRY","amp;tr":["udp%3A%2F%2Ftracker.openbittorrent.com%3A80","udp%3A%2F%2Fopen.demonii.com%3A1337","udp%3A%2F%2Ftracker.coppersurfer.tk%3A6969","udp%3A%2F%2Fexodus.desync.com%3A6969"],"infoHash":"3c498dc8a79247be9b350f7059d5f9bd86a3ff15","infoHashBuffer":{"type":"Buffer","data":[60,73,141,200,167,146,71,190,155,53,15,112,89,213,249,189,134,163,255,21]},"announce":[],"urlList":[]}}